<svg xmlns="http://www.w3.org/2000/svg" width="32" height="32" fill="none"><path fill="#E84511" d="M.05 32v-4.3L8.67 4.56H.53V0h13.66v4.38L5.23 27.44h8.34V32H.05Zm21.202-16.582h1.676c.362 0 .7-.008 1.016-.024.33-.032.622-.103.874-.214s.448-.278.59-.5c.157-.237.236-.562.236-.974 0-.349-.07-.626-.212-.832a1.259 1.259 0 0 0-.52-.476 1.988 1.988 0 0 0-.732-.214 4.578 4.578 0 0 0-.803-.071h-2.125v3.305Zm-1.607-4.613h3.992c1.228 0 2.133.246 2.716.737.598.492.897 1.236.897 2.235 0 .935-.26 1.625-.78 2.069-.519.427-1.164.681-1.936.76l2.952 4.589h-1.724l-2.81-4.47h-1.7v4.47h-1.607v-10.39Zm-3.849 5.16c0 1.093.181 2.107.543 3.043.378.919.89 1.72 1.535 2.4a7.442 7.442 0 0 0 2.315 1.617c.897.38 1.866.571 2.905.571 1.023 0 1.976-.19 2.857-.57a7.163 7.163 0 0 0 2.291-1.617 7.192 7.192 0 0 0 1.535-2.401c.378-.936.567-1.95.567-3.044a7.74 7.74 0 0 0-.567-2.972 6.936 6.936 0 0 0-1.535-2.377 6.864 6.864 0 0 0-2.29-1.593 6.89 6.89 0 0 0-2.858-.594 7.11 7.11 0 0 0-2.905.594 7.123 7.123 0 0 0-2.315 1.593 7.429 7.429 0 0 0-1.535 2.377 8.034 8.034 0 0 0-.543 2.972Zm-1.606 0c0-1.253.236-2.418.709-3.496a8.938 8.938 0 0 1 1.912-2.805 8.978 8.978 0 0 1 2.834-1.855 8.758 8.758 0 0 1 3.449-.689c1.212 0 2.353.23 3.424.69a8.701 8.701 0 0 1 2.81 1.854 8.937 8.937 0 0 1 1.913 2.805c.473 1.078.709 2.243.709 3.495 0 1.284-.236 2.473-.709 3.567a9.23 9.23 0 0 1-1.913 2.829 8.702 8.702 0 0 1-2.81 1.854 8.854 8.854 0 0 1-3.424.666 9.03 9.03 0 0 1-3.449-.666 8.978 8.978 0 0 1-2.834-1.854 9.231 9.231 0 0 1-1.912-2.83c-.473-1.093-.709-2.282-.709-3.566Z"/></svg>